<svg xmlns="http://www.w3.org/2000/svg" version="1.1" x="0" y="0" width="55.1" height="68.6" viewBox="0 0 55.1 68.6" xml:space="preserve"><path fill="#CBEC98" d="M55 19.4s-1.4 8.1-19.9 14.1c-15.3 5-14 17.6-13.1 21.7 2.3-3.2 5.1-4.4 5.1-4.4-3.4 2.7-4.6 5.2-4.8 5.5-1.8 3.1-3.8 7.3-4.7 11.8l3.2.3s0-4.7 2.5-11.5c14.8 6.5 24.8-7.2 28.8-14.9 4-7.6 2.9-22.6 2.9-22.6zM.1 7.5s.9 5 12.4 8.8c9.5 3.1 8.7 11 8.1 13.5-1.4-2-3.2-2.7-3.2-2.7 2.1 1.7 2.9 3.2 3 3.4 1.1 1.9 2.3 4.5 2.9 7.4l-2 .2s0-2.9-1.6-7.1c-9.2 4-15.5-4.5-17.9-9.3C-.6 16.8.1 7.5.1 7.5zM39.7 0s-.6 3.4-8.3 5.9C25 8 25.6 13.2 26 15c1-1.3 2.1-1.8 2.1-1.8-1.4 1.1-1.9 2.2-2 2.3-.8 1.3-1.6 3-2 4.9l1.3.1s0-1.9 1.1-4.8c6.2 2.7 10.3-3 12-6.2C40.2 6.3 39.7 0 39.7 0z"/></svg>