<svg xmlns="http://www.w3.org/2000/svg" xmlns:xlink="http://www.w3.org/1999/xlink" version="1.1" id="Layer_1" x="0" y="0" width="387.78" height="378.6" viewBox="0 0 387.78 378.6" enable-background="new 0 0 387.775 378.597" xml:space="preserve">
  <path fill="#CD9D36" d="M348.96 49.5c-0.45-0.55-0.91-1.08-1.37-1.62 -0.03 0.44-0.06 0.89-0.1 1.33C347.98 49.29 348.47 49.4 348.96 49.5z"/>
  <path fill="#CD9D36" d="M323.62 271.55c-17.4 41.12-45.87 63.27-93.31 77.5s-85.41-7.91-143.93-30.05 -63.26-68.01-53.77-109.13c9.49-41.12 4.75-66.43 28.47-112.29s101.16-55.54 132.82-66.43c15.43-5.31 27.61-7.36 37.66-7.23C225.67 17.52 221.87 9.2 221.21 0c-12.55 0.32-25.99 1.52-40.39 3.73C30.72 26.7-21.63 140.8 7.9 239.91s61.16 124.42 160.27 137.07 200.34-50.61 215.1-141.29c2.93-17.98 4.86-39.2 4.46-61.42 -5.17-0.3-10.1-1.52-14.61-3.51C368.61 208.38 338.27 236.92 323.62 271.55z"/>
  <path fill="#E7C971" d="M61.07 97.57c-23.72 45.87-18.98 71.17-28.47 112.29 -9.49 41.12-4.74 86.99 53.77 109.13s96.48 44.29 143.93 30.05 75.92-36.38 93.31-77.5c14.65-34.62 44.99-63.16 49.5-100.78 -10.75-4.74-19.16-13.79-23.04-24.98 -1 0.24-2.02 0.45-3.05 0.63 -8.53 1.45-16.92 0.61-24.55-2.06 6.92 20.13-8.23 50.56-13.09 44.67 -5.2-6.29-11.74-46.07-5.79-56.64 -6.85-6.95-11.72-15.98-13.48-26.33 -0.9-5.28-0.91-10.51-0.16-15.54 -6.95-1.57-13.32-4.68-18.74-8.95 0.64 1.65 0.75 3.12 0.21 4.31 -4.74 10.44-59.56-4.16-52.19-19.98 6.9-14.82 27.32-7.46 40.58 2.72 -4.24-7.08-6.68-15.36-6.68-24.22 0-2.81 0.26-5.56 0.73-8.24 -8.77-1.54-16.54-5.95-22.31-12.23 -10.04-0.14-22.23 1.92-37.66 7.23C162.23 42.03 84.8 51.7 61.07 97.57zM146.48 65.94c14.23 1.58 12.65 44.29 0 39.54C133.83 100.73 132.25 64.36 146.48 65.94zM184.44 182.96c15.82 15.8-39.54 45.88-37.96 23.79S174.38 172.91 184.44 182.96zM83.22 118.13c12.65-4.74 62.66 45.77 37.96 41.65C105.36 157.14 70.56 122.88 83.22 118.13zM67.4 230.58c-11.07-14.08 42.7-30.21 36.82-12.81S78.47 244.66 67.4 230.58zM85.28 273.28c-1.1-9.34 69.69-33.32 71.29-11.69C158.75 291.18 86.38 282.62 85.28 273.28zM170.2 309.73c-7.91-6.1 48.59-50.65 56.94-31.86C239.79 306.34 178.11 315.83 170.2 309.73zM303.26 251.14c-0.2 17.24-49.23 11.88-52.39-6.79C248.07 227.84 303.45 233.9 303.26 251.14zM245.16 171.9c18.02 9.49-14.86 66.43-26.61 58.68S227.14 162.42 245.16 171.9zM214.47 127.72c-3.79 13.65-48.15 23.58-51.27 9.13C160.07 122.38 218.26 114.07 214.47 127.72z"/>
  <path fill="#623623" d="M146.48 105.48c12.65 4.75 14.23-37.96 0-39.54C132.25 64.36 133.83 100.73 146.48 105.48z"/>
  <path fill="#623623" d="M219.23 65.89c-7.37 15.82 47.45 30.42 52.19 19.98 0.54-1.18 0.42-2.65-0.21-4.3 -4.55-3.58-8.42-7.97-11.4-12.95C246.56 58.43 226.14 51.07 219.23 65.89z"/>
  <path fill="#623623" d="M309.39 189.02c4.86 5.89 20.01-24.54 13.09-44.67 -7.13-2.5-13.59-6.61-18.88-11.97C297.65 142.95 304.19 182.72 309.39 189.02z"/>
  <path fill="#623623" d="M121.17 159.78c24.7 4.12-25.31-46.39-37.96-41.65S105.36 157.14 121.17 159.78z"/>
  <path fill="#623623" d="M104.22 217.77c5.89-17.4-47.89-1.27-36.82 12.81C78.47 244.66 98.33 235.17 104.22 217.77z"/>
  <path fill="#623623" d="M170.2 309.73c7.91 6.1 69.59-3.39 56.94-31.86C218.79 259.08 162.29 303.64 170.2 309.73z"/>
  <path fill="#623623" d="M303.26 251.14c0.2-17.24-55.19-23.3-52.39-6.79C254.03 263.02 303.06 268.38 303.26 251.14z"/>
  <path fill="#623623" d="M85.28 273.28c1.1 9.34 73.47 17.9 71.29-11.69C154.98 239.96 84.18 263.95 85.28 273.28z"/>
  <path fill="#623623" d="M184.44 182.96c-10.06-10.05-36.38 1.7-37.96 23.79S200.25 198.76 184.44 182.96z"/>
  <path fill="#623623" d="M218.55 230.58c11.75 7.75 44.63-49.19 26.61-58.67C227.14 162.42 206.8 222.83 218.55 230.58z"/>
  <path fill="#623623" d="M163.2 136.84c3.13 14.46 47.49 4.52 51.27-9.12C218.26 114.07 160.07 122.38 163.2 136.84z"/>
</svg>
