<svg xmlns="http://www.w3.org/2000/svg" version="1.1" id="Layer_1" x="0" y="0" width="387.78" height="378.6" viewBox="0 0 387.78 378.6" xml:space="preserve"><path fill="#CD9D36" d="M348.96 49.5c-.45-.55-.91-1.08-1.37-1.62-.03.44-.06.89-.1 1.33.49.08.98.19 1.47.29zM323.62 271.55c-17.4 41.12-45.87 63.27-93.31 77.5S144.9 341.14 86.38 319s-63.26-68.01-53.77-109.13c9.49-41.12 4.75-66.43 28.47-112.29S162.24 42.04 193.9 31.15c15.43-5.31 27.61-7.36 37.66-7.23-5.89-6.4-9.69-14.72-10.35-23.92-12.55.32-25.99 1.52-40.39 3.73C30.72 26.7-21.63 140.8 7.9 239.91s61.16 124.42 160.27 137.07 200.34-50.61 215.1-141.29c2.93-17.98 4.86-39.2 4.46-61.42a42.2 42.2 0 0 1-14.61-3.51c-4.51 37.62-34.85 66.16-49.5 100.79z"/><path fill="#E7C971" d="M61.07 97.57c-23.72 45.87-18.98 71.17-28.47 112.29-9.49 41.12-4.74 86.99 53.77 109.13s96.48 44.29 143.93 30.05 75.92-36.38 93.31-77.5c14.65-34.62 44.99-63.16 49.5-100.78-10.75-4.74-19.16-13.79-23.04-24.98-1 .24-2.02.45-3.05.63-8.53 1.45-16.92.61-24.55-2.06 6.92 20.13-8.23 50.56-13.09 44.67-5.2-6.29-11.74-46.07-5.79-56.64a49.094 49.094 0 0 1-13.48-26.33c-.9-5.28-.91-10.51-.16-15.54a47.016 47.016 0 0 1-18.74-8.95c.64 1.65.75 3.12.21 4.31-4.74 10.44-59.56-4.16-52.19-19.98 6.9-14.82 27.32-7.46 40.58 2.72a46.977 46.977 0 0 1-6.68-24.22c0-2.81.26-5.56.73-8.24a39.586 39.586 0 0 1-22.31-12.23c-10.04-.14-22.23 1.92-37.66 7.23C162.23 42.03 84.8 51.7 61.07 97.57zm85.41-31.63c14.23 1.58 12.65 44.29 0 39.54s-14.23-41.12 0-39.54zm37.96 117.02c15.82 15.8-39.54 45.88-37.96 23.79s27.9-33.84 37.96-23.79zM83.22 118.13c12.65-4.74 62.66 45.77 37.96 41.65-15.82-2.64-50.62-36.9-37.96-41.65zM67.4 230.58c-11.07-14.08 42.7-30.21 36.82-12.81s-25.75 26.89-36.82 12.81zm17.88 42.7c-1.1-9.34 69.69-33.32 71.29-11.69 2.18 29.59-70.19 21.03-71.29 11.69zm84.92 36.45c-7.91-6.1 48.59-50.65 56.94-31.86 12.65 28.47-49.03 37.96-56.94 31.86zm133.06-58.59c-.2 17.24-49.23 11.88-52.39-6.79-2.8-16.51 52.58-10.45 52.39 6.79zm-58.1-79.24c18.02 9.49-14.86 66.43-26.61 58.68s8.59-68.16 26.61-58.68zm-30.69-44.18c-3.79 13.65-48.15 23.58-51.27 9.13-3.13-14.47 55.06-22.78 51.27-9.13z"/><path fill="#623623" d="M146.48 105.48c12.65 4.75 14.23-37.96 0-39.54-14.23-1.58-12.65 34.79 0 39.54zM219.23 65.89c-7.37 15.82 47.45 30.42 52.19 19.98.54-1.18.42-2.65-.21-4.3a47.564 47.564 0 0 1-11.4-12.95c-13.25-10.19-33.67-17.55-40.58-2.73zM309.39 189.02c4.86 5.89 20.01-24.54 13.09-44.67a49.621 49.621 0 0 1-18.88-11.97c-5.95 10.57.59 50.34 5.79 56.64zM121.17 159.78c24.7 4.12-25.31-46.39-37.96-41.65s22.15 39.01 37.96 41.65zM104.22 217.77c5.89-17.4-47.89-1.27-36.82 12.81s30.93 4.59 36.82-12.81zM170.2 309.73c7.91 6.1 69.59-3.39 56.94-31.86-8.35-18.79-64.85 25.77-56.94 31.86zM303.26 251.14c.2-17.24-55.19-23.3-52.39-6.79 3.16 18.67 52.19 24.03 52.39 6.79zM85.28 273.28c1.1 9.34 73.47 17.9 71.29-11.69-1.59-21.63-72.39 2.36-71.29 11.69zM184.44 182.96c-10.06-10.05-36.38 1.7-37.96 23.79s53.77-7.99 37.96-23.79zM218.55 230.58c11.75 7.75 44.63-49.19 26.61-58.67-18.02-9.49-38.36 50.92-26.61 58.67zM163.2 136.84c3.13 14.46 47.49 4.52 51.27-9.12 3.79-13.65-54.4-5.34-51.27 9.12z"/></svg>